<svg xmlns="http://www.w3.org/2000/svg" version="1.1" xmlns:xlink="http://www.w3.org/1999/xlink"
    xmlns:svgjs="http://svgjs.com/svgjs" width="512" height="512" x="0" y="0" viewBox="0 0 60 59"
    style="enable-background:new 0 0 512 512" xml:space="preserve" class="">
    <g fill="#000" fill-rule="nonzero">
        <path d="M19 4.5a4.5 4.5 0 1 0 9 0 4.5 4.5 0 0 0-9 0Zm7 0a2.5 2.5 0 1 1-5 0 2.5 2.5 0 0 1 5 0ZM59.568 35.177a1 1 0 0 0-.922-.112l-12.67 4.806a3.484 3.484 0 0 0-.675-2.32L37.715 27.4A3.565 3.565 0 0 0 34.9 26H27v-3h4.47A3.463 3.463 0 0 0 35 19.53a2.129 2.129 0 0 0-.037-.428A3.52 3.52 0 0 0 31.47 16H27v-1.47a3.5 3.5 0 0 0-7 0v.03a17.455 17.455 0 0 0 1.79 34.485L.646 57.065A1 1 0 0 0 1 59h54a5.006 5.006 0 0 0 5-5V36a1 1 0 0 0-.432-.823ZM22 14.53c0-.845.685-1.53 1.53-1.53A1.485 1.485 0 0 1 25 14.53V17a1 1 0 0 0 1 1h5.47a1.547 1.547 0 0 1 1.52 1.417c.007.037.01.075.01.113A1.485 1.485 0 0 1 31.47 21H26a1 1 0 0 0-1 1v5a1 1 0 0 0 1 1h8.9c.478.004.928.228 1.219.608L43.7 38.749a1.531 1.531 0 0 1-.237 2.075l-.991.376c-.48 0-.931-.225-1.219-.608L35.58 33l-1.138-1.579A1 1 0 0 0 33.63 31h-10.1c-.845 0-1.53-.685-1.53-1.53V14.53ZM23.53 33h9.587l.539.726A10.4 10.4 0 0 1 13.07 31.67a10.5 10.5 0 0 1 6.93-9.8v7.6A3.533 3.533 0 0 0 23.53 33ZM8 31.67A15.6 15.6 0 0 1 20 16.6v3.17a12.4 12.4 0 0 0 3.47 24.3 12.349 12.349 0 0 0 11.7-8.3l2.095 2.819A15.449 15.449 0 0 1 8 31.67Zm30.594 8.7 1.059 1.424c.103.124.214.24.333.349l-3.773 1.431a17.485 17.485 0 0 0 2.381-3.204ZM58 54a3 3 0 0 1-3 3H6.456L58 37.449V54Z" 
        fill="#ffffff" data-original="#000000" class=""></path>
    </g>
</svg>