<svg xmlns="http://www.w3.org/2000/svg" version="1.1" xmlns:xlink="http://www.w3.org/1999/xlink"
    xmlns:svgjs="http://svgjs.com/svgjs" width="512" height="512" x="0" y="0" viewBox="0 0 512 512"
    style="enable-background:new 0 0 512 512" xml:space="preserve" class="">
    <g>
        <path d="M151 340c11.047 0 20 8.953 20 20s-8.953 20-20 20-20-8.953-20-20 8.953-20 20-20zm361 72c0 11.047-8.953 20-20 20h-23.441A59.657 59.657 0 0 1 472 452c0 33.086-26.914 60-60 60s-60-26.914-60-60a59.657 59.657 0 0 1 3.441-20H281c-1.46 0-2.879-.164-4.25-.46a19.88 19.88 0 0 1-12.059-1.138c-10.16-4.328-14.886-16.078-10.558-26.238C260.016 390.352 263 375.66 263 360.5c0-61.48-50.02-111.5-111.5-111.5S40 299.02 40 360.5 90.02 472 151.5 472c18.54 0 36.887-4.637 53.062-13.406 9.708-5.266 21.848-1.66 27.114 8.047 5.265 9.71 1.664 21.851-8.047 27.117C201.617 505.69 176.679 512 151.5 512 67.96 512 0 444.035 0 360.5c0-65.863 42.254-122.035 101.074-142.86L88.508 99.91C83.91 65.742 54.5 40 20 40 8.953 40 0 31.047 0 20S8.953 0 20 0c54.582 0 101.098 40.813 108.2 94.93l.058.48 8.277 77.59h173.621c18.051 0 35.762 6.2 49.875 17.453s24.098 27.14 28.117 44.738L423.95 392H492c11.047 0 20 8.953 20 20zm-209-51.5a151.93 151.93 0 0 1-3.281 31.5h83.203l-18.04-79h-69.515A150.969 150.969 0 0 1 303 360.5zM275.11 273h80.64l-6.598-28.902C344.972 225.789 328.934 213 310.156 213h-124.02c36.481 8.566 67.923 30.348 88.973 60zM412 432c-11.027 0-20 8.973-20 20s8.973 20 20 20 20-8.973 20-20-8.973-20-20-20zm0 0" 
        fill="#ffffff" data-original="#000000" class=""></path>
    </g>
</svg>