<?xml version="1.0" encoding="iso-8859-1"?>
<svg xmlns="http://www.w3.org/2000/svg" xmlns:xlink="http://www.w3.org/1999/xlink" width="700px" height="700px" xml:space="preserve">
    <view></view>
    <view id="buy" viewBox="0 0 380 48"></view>
    <g>
        <rect rx="24" x="0" y="0" width="380px" height="48px" fill="#78BD3F"></rect>
        <text font-family="Helvetica" font-size="26" fill="#fff" y="33" x="129">L&#230;g i kurv</text>
    </g>

    <view id="variant" viewBox="0 68 380 48"></view>
    <g>
        <rect rx="24" x="0" y="68px" width="380px" height="48px" fill="#4583ed"></rect>
        <text font-family="Helvetica" font-size="26" fill="#fff" y="101" x="116">V&#230;lg variant</text>
    </g>

    <view id="download" viewBox="0 136 240 48"></view>
    <g>
        <rect rx="24" x="0" y="136px" width="240px" height="48px" fill="#78BD3F"/>
        <text text-align="center" font-family="Helvetica" font-size="26" fill="#fff" y="169" x="61">Download</text>
    </g>

    <view id="pdf" viewBox="260 136 100 100"></view>
    <svg x="260" y="136" viewBox="0 0 309.267 309.267" width="100px" height="100px">
        <g>
            <path style="fill:#E2574C;" d="M38.658,0h164.23l87.049,86.711v203.227c0,10.679-8.659,19.329-19.329,19.329H38.658   c-10.67,0-19.329-8.65-19.329-19.329V19.329C19.329,8.65,27.989,0,38.658,0z"/>
            <path style="fill:#B53629;" d="M289.658,86.981h-67.372c-10.67,0-19.329-8.659-19.329-19.329V0.193L289.658,86.981z"/>
            <path style="fill:#FFFFFF;" d="M217.434,146.544c3.238,0,4.823-2.822,4.823-5.557c0-2.832-1.653-5.567-4.823-5.567h-18.44   c-3.605,0-5.615,2.986-5.615,6.282v45.317c0,4.04,2.3,6.282,5.412,6.282c3.093,0,5.403-2.242,5.403-6.282v-12.438h11.153   c3.46,0,5.19-2.832,5.19-5.644c0-2.754-1.73-5.49-5.19-5.49h-11.153v-16.903C204.194,146.544,217.434,146.544,217.434,146.544z    M155.107,135.42h-13.492c-3.663,0-6.263,2.513-6.263,6.243v45.395c0,4.629,3.74,6.079,6.417,6.079h14.159   c16.758,0,27.824-11.027,27.824-28.047C183.743,147.095,173.325,135.42,155.107,135.42z M155.755,181.946h-8.225v-35.334h7.413   c11.221,0,16.101,7.529,16.101,17.918C171.044,174.253,166.25,181.946,155.755,181.946z M106.33,135.42H92.964   c-3.779,0-5.886,2.493-5.886,6.282v45.317c0,4.04,2.416,6.282,5.663,6.282s5.663-2.242,5.663-6.282v-13.231h8.379   c10.341,0,18.875-7.326,18.875-19.107C125.659,143.152,117.425,135.42,106.33,135.42z M106.108,163.158h-7.703v-17.097h7.703   c4.755,0,7.78,3.711,7.78,8.553C113.878,159.447,110.863,163.158,106.108,163.158z"/>
        </g>
    </svg>

    <view id="phone" viewBox="10 210 24 24"></view>
    <svg x="10" y="210" viewBox="0 0 241.73 241.73" width="24px" height="24px">
        <g>
            <path fill="#666" d="M234.771,181.213l-34.938-34.953c-4.692-4.668-10.975-7.24-17.689-7.24
                c-6.987,0-13.584,2.751-18.572,7.742l-13.6,13.597c-10.568-5.874-24.614-13.953-39.197-28.536
                c-14.566-14.571-22.646-28.576-28.55-39.201l13.613-13.603c10.121-10.142,10.328-26.413,0.463-36.269L61.37,7.818
                c-4.679-4.692-10.962-7.276-17.693-7.276c-6.831,0-13.293,2.63-18.252,7.417c-3,2.416-18.055,15.706-23.666,43.114
                c-7.856,38.363,10.194,75.274,62.302,127.403c58.209,58.191,107.902,62.714,121.746,62.714c2.882,0,4.621-0.178,5.085-0.232
                c27.147-3.182,36.867-15.238,43.964-24.041C244.052,205.508,244.02,190.496,234.771,181.213z M223.178,207.502
                c-6.671,8.274-12.971,16.088-34.031,18.557c-0.011,0.001-1.163,0.13-3.34,0.13c-12.386,0-57.008-4.206-111.139-58.32
                C26.615,119.796,9.749,86.829,16.454,54.081c4.894-23.906,17.887-34.067,18.392-34.453l0.448-0.331l0.393-0.394
                c2.169-2.167,5.006-3.361,7.989-3.361c2.716,0,5.228,1.018,7.08,2.876l34.939,34.94c4.02,4.016,3.806,10.774-0.471,15.06
                L69.829,83.8l-0.253,0.265c-4.012,4.419-3.54,10.391-1.33,14.28c6.377,11.508,15.112,27.269,31.92,44.082
                c16.752,16.752,32.49,25.48,43.966,31.845c1.149,0.645,3.521,1.727,6.49,1.727c3.506,0,6.725-1.484,9.108-4.189l14.448-14.444
                c2.157-2.158,4.985-3.347,7.964-3.347c2.722,0,5.247,1.021,7.095,2.859l34.915,34.93
                C228.587,196.259,226.756,203.064,223.178,207.502z"/>
            <path fill="#666" d="M146.447,37.293c12.887,1.483,28.061,9.289,38.657,19.886c10.695,10.695,18.52,26.023,19.933,39.05
                c0.417,3.843,3.667,6.691,7.447,6.691c0.27,0,0.544-0.015,0.818-0.044c4.118-0.447,7.094-4.147,6.647-8.265
                c-1.787-16.467-11.075-34.874-24.238-48.038c-13.04-13.041-31.259-22.306-47.549-24.181c-4.113-0.477-7.834,2.479-8.308,6.593
                C139.38,33.099,142.331,36.819,146.447,37.293z"/>
            <path fill="#666" d="M139.44,68.711c6.97,0.803,16.616,5.973,22.935,12.292c6.373,6.374,11.553,16.112,12.316,23.157
                c0.417,3.844,3.667,6.692,7.447,6.692c0.27,0,0.543-0.015,0.817-0.044c4.118-0.447,7.095-4.147,6.648-8.265
                c-1.304-12.028-9.289-24.813-16.623-32.147c-7.268-7.269-19.928-15.216-31.825-16.587c-4.119-0.479-7.835,2.478-8.309,6.592
                C132.373,64.516,135.325,68.237,139.44,68.711z"/>
        </g>
    </svg>

    <view id="mail" viewBox="74 210 24 24"></view>
    <svg x="74" y="210" viewBox="0 0 483.3 483.3" width="24px" height="24px">
        <g>
            <g>
                <path fill="#666" d="M424.3,57.75H59.1c-32.6,0-59.1,26.5-59.1,59.1v249.6c0,32.6,26.5,59.1,59.1,59.1h365.1c32.6,0,59.1-26.5,59.1-59.1
                    v-249.5C483.4,84.35,456.9,57.75,424.3,57.75z M456.4,366.45c0,17.7-14.4,32.1-32.1,32.1H59.1c-17.7,0-32.1-14.4-32.1-32.1v-249.5
                    c0-17.7,14.4-32.1,32.1-32.1h365.1c17.7,0,32.1,14.4,32.1,32.1v249.5H456.4z"/>
                <path fill="#666" d="M304.8,238.55l118.2-106c5.5-5,6-13.5,1-19.1c-5-5.5-13.5-6-19.1-1l-163,146.3l-31.8-28.4c-0.1-0.1-0.2-0.2-0.2-0.3
                    c-0.7-0.7-1.4-1.3-2.2-1.9L78.3,112.35c-5.6-5-14.1-4.5-19.1,1.1c-5,5.6-4.5,14.1,1.1,19.1l119.6,106.9L60.8,350.95
                    c-5.4,5.1-5.7,13.6-0.6,19.1c2.7,2.8,6.3,4.3,9.9,4.3c3.3,0,6.6-1.2,9.2-3.6l120.9-113.1l32.8,29.3c2.6,2.3,5.8,3.4,9,3.4
                    c3.2,0,6.5-1.2,9-3.5l33.7-30.2l120.2,114.2c2.6,2.5,6,3.7,9.3,3.7c3.6,0,7.1-1.4,9.8-4.2c5.1-5.4,4.9-14-0.5-19.1L304.8,238.55z"
                    />
            </g>
        </g>
    </svg>

    <view id="search" viewBox="142 214 16 16"></view>
    <svg x="142px" y="214px" viewBox="0 0 250.313 250.313" width="16px" height="16px">
        <g>
            <path fill="#fff" d="M244.186,214.604l-54.379-54.378c-0.289-0.289-0.628-0.491-0.93-0.76   c10.7-16.231,16.945-35.66,16.945-56.554C205.822,46.075,159.747,0,102.911,0S0,46.075,0,102.911   c0,56.835,46.074,102.911,102.91,102.911c20.895,0,40.323-6.245,56.554-16.945c0.269,0.301,0.47,0.64,0.759,0.929l54.38,54.38   c8.169,8.168,21.413,8.168,29.583,0C252.354,236.017,252.354,222.773,244.186,214.604z M102.911,170.146   c-37.134,0-67.236-30.102-67.236-67.235c0-37.134,30.103-67.236,67.236-67.236c37.132,0,67.235,30.103,67.235,67.236   C170.146,140.044,140.043,170.146,102.911,170.146z"/>
        </g>
    </svg>

    <view id="cart" viewBox="206 214 16 16"></view>
    <svg x="206px" y="214px" viewBox="0 0 446.843 446.843" width="16px" height="16px">
    <g>
        <path fill="#fff" d="M444.09,93.103c-2.698-3.699-7.006-5.888-11.584-5.888H109.92c-0.625,0-1.249,0.038-1.85,0.119l-13.276-38.27   c-1.376-3.958-4.406-7.113-8.3-8.646L19.586,14.134c-7.374-2.887-15.695,0.735-18.591,8.1c-2.891,7.369,0.73,15.695,8.1,18.591   l60.768,23.872l74.381,214.399c-3.283,1.144-6.065,3.663-7.332,7.187l-21.506,59.739c-1.318,3.663-0.775,7.733,1.468,10.916   c2.24,3.183,5.883,5.078,9.773,5.078h11.044c-6.844,7.616-11.044,17.646-11.044,28.675c0,23.718,19.298,43.012,43.012,43.012   s43.012-19.294,43.012-43.012c0-11.029-4.2-21.059-11.044-28.675h93.776c-6.847,7.616-11.048,17.646-11.048,28.675   c0,23.718,19.294,43.012,43.013,43.012c23.718,0,43.012-19.294,43.012-43.012c0-11.029-4.2-21.059-11.043-28.675h13.433   c6.599,0,11.947-5.349,11.947-11.948c0-6.599-5.349-11.947-11.947-11.947H143.647l13.319-36.996   c1.72,0.724,3.578,1.152,5.523,1.152h210.278c6.234,0,11.751-4.027,13.65-9.959l59.739-186.387   C447.557,101.567,446.788,96.802,444.09,93.103z M169.659,409.807c-10.543,0-19.116-8.573-19.116-19.116   s8.573-19.117,19.116-19.117s19.116,8.574,19.116,19.117S180.202,409.807,169.659,409.807z M327.367,409.807   c-10.543,0-19.117-8.573-19.117-19.116s8.574-19.117,19.117-19.117c10.542,0,19.116,8.574,19.116,19.117   S337.909,409.807,327.367,409.807z M402.52,148.149h-73.161V115.89h83.499L402.52,148.149z M381.453,213.861h-52.094v-37.038   h63.967L381.453,213.861z M234.571,213.861v-37.038h66.113v37.038H234.571z M300.684,242.538v31.064h-66.113v-31.064H300.684z    M139.115,176.823h66.784v37.038h-53.933L139.115,176.823z M234.571,148.149V115.89h66.113v32.259H234.571z M205.898,115.89v32.259   h-76.734l-11.191-32.259H205.898z M161.916,242.538h43.982v31.064h-33.206L161.916,242.538z M329.359,273.603v-31.064h42.909   l-9.955,31.064H329.359z"/>
    </g>
    </svg>

    <view id="question" viewBox="0 264 44 44"></view>
    <svg x="0" y="264" viewBox="0 0 973.1 973.1" width="44px" height="44px" >
        <g>
            <path fill="#f8991d" d="M502.29,788.199h-47c-33.1,0-60,26.9-60,60v64.9c0,33.1,26.9,60,60,60h47c33.101,0,60-26.9,60-60v-64.9
                C562.29,815,535.391,788.199,502.29,788.199z"/>
            <path fill="#f8991d" d="M170.89,285.8l86.7,10.8c27.5,3.4,53.6-12.4,63.5-38.3c12.5-32.7,29.9-58.5,52.2-77.3c31.601-26.6,70.9-40,117.9-40
                c48.7,0,87.5,12.8,116.3,38.3c28.8,25.6,43.1,56.2,43.1,92.1c0,25.8-8.1,49.4-24.3,70.8c-10.5,13.6-42.8,42.2-96.7,85.9
                c-54,43.7-89.899,83.099-107.899,118.099c-18.4,35.801-24.8,75.5-26.4,115.301c-1.399,34.1,25.8,62.5,60,62.5h49
                c31.2,0,57-23.9,59.8-54.9c2-22.299,5.7-39.199,11.301-50.699c9.399-19.701,33.699-45.701,72.699-78.1
                C723.59,477.8,772.79,428.4,795.891,392c23-36.3,34.6-74.8,34.6-115.5c0-73.5-31.3-138-94-193.4c-62.6-55.4-147-83.1-253-83.1
                c-100.8,0-182.1,27.3-244.1,82c-52.8,46.6-84.9,101.8-96.2,165.5C139.69,266.1,152.39,283.5,170.89,285.8z"/>
        </g>
    </svg>

    <view id="delivery" viewBox="64 264 44 44"></view>
    <svg x="64" y="264" viewBox="0 0 612.001 612" width="44px" height="44px">
        <g>
            <path fill="#78BD3F" d="M604.131,440.17h-19.12V333.237c0-12.512-3.776-24.787-10.78-35.173l-47.92-70.975
                c-11.725-17.311-31.238-27.698-52.169-27.698h-74.28c-8.734,0-15.737,7.082-15.737,15.738v225.043H262.475
                c11.567,9.992,19.514,23.92,21.796,39.658H412.53c4.563-31.238,31.475-55.396,63.972-55.396c32.498,0,59.33,24.158,63.895,55.396
                h63.735c4.328,0,7.869-3.541,7.869-7.869V448.04C612,443.713,608.46,440.17,604.131,440.17z M525.76,312.227h-98.044
                c-4.327,0-7.868-3.463-7.868-7.869v-54.372c0-4.328,3.541-7.869,7.868-7.869h59.724c2.597,0,4.957,1.259,6.452,3.305l38.32,54.451
                C535.831,305.067,532.133,312.227,525.76,312.227z M476.502,440.17c-27.068,0-48.943,21.953-48.943,49.021
                c0,26.99,21.875,48.943,48.943,48.943c26.989,0,48.943-21.953,48.943-48.943C525.445,462.125,503.491,440.17,476.502,440.17z
                M476.502,513.665c-13.535,0-24.472-11.016-24.472-24.471c0-13.535,10.937-24.473,24.472-24.473
                c13.533,0,24.472,10.938,24.472,24.473C500.974,502.649,490.036,513.665,476.502,513.665z M68.434,440.17
                c-4.328,0-7.869,3.543-7.869,7.869v23.922c0,4.328,3.541,7.869,7.869,7.869h87.971c2.282-15.738,10.229-29.666,21.718-39.658
                H68.434V440.17z M220.298,440.17c-26.989,0-48.943,21.953-48.943,49.021c0,26.99,21.954,48.943,48.943,48.943
                c27.068,0,48.943-21.953,48.943-48.943C269.242,462.125,247.367,440.17,220.298,440.17z M220.298,513.665
                c-13.534,0-24.471-11.016-24.471-24.471c0-13.535,10.937-24.473,24.471-24.473c13.534,0,24.472,10.938,24.472,24.473
                C244.77,502.649,233.832,513.665,220.298,513.665z M338.014,150.605h-91.198c4.485,13.298,6.846,27.54,6.846,42.255
                c0,74.28-60.431,134.711-134.711,134.711c-13.535,0-26.675-2.045-39.029-5.744v86.949c0,4.328,3.541,7.869,7.869,7.869h265.96
                c4.329,0,7.869-3.541,7.869-7.869V174.211C361.619,161.149,351.075,150.605,338.014,150.605z M118.969,73.866
                C53.264,73.866,0,127.129,0,192.834s53.264,118.969,118.969,118.969s118.97-53.264,118.97-118.969S184.674,73.866,118.969,73.866z
                M118.969,284.73c-50.752,0-91.896-41.143-91.896-91.896c0-50.753,41.144-91.896,91.896-91.896
                c50.753,0,91.896,41.144,91.896,91.896C210.865,243.587,169.722,284.73,118.969,284.73z M154.066,212.242
                c-1.014,0-2.052-0.131-3.082-0.407L112.641,201.5c-5.148-1.391-8.729-6.062-8.729-11.396v-59.015
                c0-6.516,5.287-11.803,11.803-11.803c6.516,0,11.803,5.287,11.803,11.803v49.971l29.614,7.983
                c6.294,1.698,10.02,8.177,8.322,14.469C164.033,208.776,159.269,212.242,154.066,212.242z"/>
        </g>
    </svg>

    <view id="payment" viewBox="128 264 44 44"></view>
    <svg x="128" y="264" viewBox="0 0 611.996 611.996" width="44px" height="44px">
        <g>
            <path fill="#4583ed" d="M588.63,113.193L213.812,33.871c-15.858-3.355-31.576,6.876-34.931,22.734l-7.121,45.762l432.477,91.519l7.121-45.762
                C614.713,132.272,604.488,116.549,588.63,113.193z"/>
            <path fill="#4583ed" d="M431.009,203.591c-4.378-15.766-20.854-25.085-36.615-20.714L323.24,202.63l-167.742-35.5l-18.448,87.165L21.786,286.287
                c-15.76,4.372-25.079,20.848-20.708,36.609l64.958,234.078c4.378,15.76,20.855,25.085,36.615,20.708l372.608-103.403
                c15.76-4.378,25.079-20.848,20.708-36.615l-11.15-40.184l41.789,8.835c15.858,3.361,31.576-6.87,34.931-22.728l26.439-124.937
                L437.45,226.797L431.009,203.591z M474.04,322.559l9.215-43.552c1.384-6.521,7.85-10.727,14.37-9.35l43.552,9.221
                c6.527,1.384,10.733,7.843,9.356,14.37l-9.215,43.552c-1.384,6.521-7.849,10.733-14.37,9.35l-43.552-9.215
                C476.863,335.546,472.656,329.08,474.04,322.559z M28.27,309.646l103.115-28.606l243.299-67.517l26.181-7.274
                c0.478-0.129,0.955-0.19,1.421-0.19c2.1,0,4.611,1.378,5.345,4.017l3.074,11.07l9.631,34.704L37.148,362.186l-12.705-45.768
                C23.647,313.546,25.399,310.442,28.27,309.646z M472.601,444.141c0.49,1.776-0.024,3.245-0.545,4.164
                c-0.514,0.918-1.506,2.119-3.282,2.608L96.173,554.316c-0.471,0.129-0.955,0.196-1.421,0.196c-2.1,0-4.611-1.384-5.345-4.023
                L51.519,413.955l383.188-106.342l23.371,84.208L472.601,444.141z"/>
            <path fill="#4583ed" d="M156.379,453.484c-1.788-6.429-8.499-10.225-14.928-8.443l-43.515,12.08c-6.423,1.782-10.225,8.499-8.437,14.928
                l12.074,43.509c1.788,6.429,8.499,10.225,14.928,8.437l43.515-12.074c6.429-1.782,10.225-8.499,8.443-14.928L156.379,453.484z"/>
        </g>
    </svg>

    <view id="wheelchair" viewBox="192 261 50 50"></view>
    <svg x="192" y="261" viewBox="0 0 512 512" width="50px" height="50px">
        <path fill="#4583ed" d="m151 340c11.046875 0 20 8.953125 20 20s-8.953125 20-20 20-20-8.953125-20-20 8.953125-20 20-20zm361 72c0 11.046875-8.953125 20-20 20h-23.441406c2.222656 6.261719 3.441406 12.988281 3.441406 20 0 33.085938-26.914062 60-60 60s-60-26.914062-60-60c0-7.011719 1.21875-13.738281 3.441406-20h-74.441406c-1.460938 0-2.878906-.164062-4.25-.460938-3.90625.847657-8.097656.550782-12.058594-1.136718-10.160156-4.328125-14.886718-16.078125-10.558594-26.238282 5.882813-13.8125 8.867188-28.503906 8.867188-43.664062 0-61.480469-50.019531-111.5-111.5-111.5s-111.5 50.019531-111.5 111.5 50.019531 111.5 111.5 111.5c18.539062 0 36.886719-4.636719 53.0625-13.40625 9.707031-5.265625 21.847656-1.660156 27.113281 8.046875 5.265625 9.710937 1.664063 21.851563-8.046875 27.117187-22.011718 11.933594-46.949218 18.242188-72.128906 18.242188-83.539062 0-151.5-67.964844-151.5-151.5 0-65.863281 42.253906-122.035156 101.074219-142.859375l-12.566407-117.730469c-4.597656-34.167968-34.007812-59.910156-68.507812-59.910156-11.046875 0-20-8.953125-20-20s8.953125-20 20-20c54.582031 0 101.097656 40.8125 108.199219 94.929688l.058593.480468 8.277344 77.589844h173.621094c18.050781 0 35.761719 6.199219 49.875 17.453125s24.097656 27.140625 28.117188 44.738281l35.800781 156.808594h68.050781c11.046875 0 20 8.953125 20 20zm-209-51.5c0 10.691406-1.105469 21.21875-3.28125 31.5h83.203125l-18.039063-79h-69.515624c4.945312 14.949219 7.632812 30.914062 7.632812 47.5zm-27.890625-87.5h80.640625l-6.597656-28.902344c-4.179688-18.308594-20.21875-31.097656-38.996094-31.097656h-124.019531c36.480469 8.566406 67.921875 30.347656 88.972656 60zm136.890625 159c-11.027344 0-20 8.972656-20 20s8.972656 20 20 20 20-8.972656 20-20-8.972656-20-20-20zm0 0"/>
    </svg>

    <view id="return" viewBox="254 273 21 21"></view>
    <svg x="254" y="273" viewBox="0 0 512 512" width="50px" height="50px">
        <path fill="#666" d="M152.774,69.886H30.728l24.97-24.97c3.515-3.515,3.515-9.213,0-12.728c-3.516-3.516-9.213-3.515-12.729,0L2.636,72.523  c-3.515,3.515-3.515,9.213,0,12.728l40.333,40.333c1.758,1.758,4.061,2.636,6.364,2.636c2.303,0,4.606-0.879,6.364-2.636  c3.515-3.515,3.515-9.213,0-12.728l-24.97-24.97h122.046c19.483,0,35.334,15.851,35.334,35.334s-15.851,35.334-35.334,35.334H78.531  c-4.971,0-9,4.029-9,9s4.029,9,9,9h74.242c29.408,0,53.334-23.926,53.334-53.334S182.182,69.886,152.774,69.886z"></path>
    </svg>

    <view id="deliveryGrey" viewBox="288 273 24 24"></view>
    <svg x="288" y="273" viewBox="0 0 512 512" width="24px" height="24px">
        <path fill="#666" d="M492.522,118.3L266.433,3.743l-0.094-0.047c-10.067-5.012-22.029-4.9-32.002,0.3l-96.969,51.464    c-0.788,0.334-1.545,0.739-2.27,1.205L18.896,118.337C7.24,124.44,0,136.398,0,149.559V362.44c0,13.161,7.24,25.118,18.896,31.221    l215.345,114.292l0.097,0.051c5.086,2.652,10.691,3.981,16.297,3.981c5.385,0,10.772-1.226,15.704-3.682l226.183-114.604    C504.538,387.69,512,375.618,512,362.18V149.82C512,136.381,504.538,124.308,492.522,118.3z M248.237,30.569    c1.469-0.754,3.223-0.769,4.705-0.042l211.629,107.23l-82.364,41.005L175.308,69.275L248.237,30.569z M235.424,474.63    L32.91,367.147l-0.097-0.051c-1.741-0.909-2.824-2.692-2.824-4.656V163.091l205.435,107.124V474.63z M250.577,244.295    L46.272,137.76l97.024-51.493L349.171,195.21L250.577,244.295z M482.009,362.178c0.001,2.007-1.115,3.809-2.911,4.703    L265.414,475.152V270.408l98.386-48.982v51.355c0,8.281,6.714,14.995,14.995,14.995s14.995-6.714,14.995-14.995v-66.286    l88.219-43.92V362.178z"></path>
    </svg>

    <view id="deliveryTime" viewBox="324 273 24 24"></view>
    <svg x="323" y="272" viewBox="0 0 512 512" width="556px" height="556px">
        <path fill="#666" d="m12 1a11 11 0 1 0 11 11 11.013 11.013 0 0 0 -11-11zm0 20a9 9 0 1 1 9-9 9.011 9.011 0 0 1 -9 9z"></path>
        <path fill="#666" d="m13 11.586v-5.586a1 1 0 0 0 -2 0v6a1 1 0 0 0 .293.707l3 3a1 1 0 0 0 1.414-1.414z"></path>
    </svg>

    <view id="youtube" viewBox="220 330 44 44"></view>
    <svg x="220" y="330" viewBox="0 0 512 512" width="44px" height="44px">
        <circle r="256" cx="256" cy="256" fill="#ffffff" shape="circle" transform="matrix(0.88,0,0,0.88,30.72,30.72)"/>
        <g transform="matrix(1,0,0,1,0,0)">
            <path xmlns="http://www.w3.org/2000/svg" d="m224.113281 303.960938 83.273438-47.960938-83.273438-47.960938zm0 0" fill="#ff0000" data-original="#000000"/>
            <path xmlns="http://www.w3.org/2000/svg" d="m256 0c-141.363281 0-256 114.636719-256 256s114.636719 256 256 256 256-114.636719 256-256-114.636719-256-256-256zm159.960938 256.261719s0 51.917969-6.585938 76.953125c-3.691406 13.703125-14.496094 24.507812-28.199219 28.195312-25.035156 6.589844-125.175781 6.589844-125.175781 6.589844s-99.878906 0-125.175781-6.851562c-13.703125-3.6875-24.507813-14.496094-28.199219-28.199219-6.589844-24.769531-6.589844-76.949219-6.589844-76.949219s0-51.914062 6.589844-76.949219c3.6875-13.703125 14.757812-24.773437 28.199219-28.460937 25.035156-6.589844 125.175781-6.589844 125.175781-6.589844s100.140625 0 125.175781 6.851562c13.703125 3.6875 24.507813 14.496094 28.199219 28.199219 6.851562 25.035157 6.585938 77.210938 6.585938 77.210938zm0 0" fill="#ff0000" data-original="#000000"/>
        </g>
    </svg>

    <view id="facebook" viewBox="288 330 44 44"></view>
    <svg x="288" y="330" viewBox="0 0 112.196 112.196" width="44px" height="44px">
        <g>
            <circle style="fill:#3B5998;" cx="56.098" cy="56.098" r="56.098"/>
            <path style="fill:#FFFFFF;" d="M70.201,58.294h-10.01v36.672H45.025V58.294h-7.213V45.406h7.213v-8.34
                c0-5.964,2.833-15.303,15.301-15.303L71.56,21.81v12.51h-8.151c-1.337,0-3.217,0.668-3.217,3.513v7.585h11.334L70.201,58.294z"/>
        </g>
    </svg>

    <view id="basketDelivery" viewBox="260 398 48 48"></view>
    <svg x="260px" y="398px" viewBox="0 0 612 612" width="48px" height="48px">
        <g>
            <path d="M391.897,259.865c-0.737-6.115-3.061-11.692-6.633-16.349l24.524-152.198c0.913-5.663-2.72-11.062-8.308-12.353   l-0.274-0.062c-5.588-1.291-11.219,1.971-12.882,7.46l-44.676,147.543c-11.01,5.536-18.653,16.821-18.653,29.964   c0,18.558,15.091,33.658,33.648,33.658c3.458,0,6.728-0.675,9.869-1.647l93.334,48.503c5.135,2.668,11.456,1.002,14.607-3.852   l0.141-0.217c3.152-4.852,2.104-11.305-2.424-14.91L391.897,259.865z M342.023,263.87c0-9.163,7.458-16.621,16.621-16.621   c9.171,0,16.629,7.458,16.629,16.621c0,9.17-7.458,16.629-16.629,16.629C349.481,280.499,342.023,273.041,342.023,263.87z    M612,263.87c0,112.658-73.93,208.333-175.809,241.169l-0.005-36.076c82.756-31.396,141.757-111.467,141.757-205.093   c0-120.92-98.38-219.299-219.299-219.299c-120.92,0-219.299,98.379-219.299,219.299c0,12.13,1.034,24.019,2.938,35.62h-34.441   c-1.646-11.646-2.554-23.527-2.554-35.62c0-139.703,113.653-253.356,253.356-253.356C498.347,10.514,612,124.167,612,263.87z    M402.81,444.398l-77.99-77.139c-4.938-4.939-11.664-7.664-18.561-7.664h-39.336v-14.729c0-10.984-8.939-19.838-19.923-19.838   H19.841c-10.983,0-19.838,8.854-19.838,19.838v132.82h410.641v-14.473C410.643,456.148,407.833,449.336,402.81,444.398z    M368.838,446.953h-75.521c-1.703,0-3.065-1.363-3.065-3.066v-58.322c0-1.703,1.361-3.066,3.065-3.066h14.389   c0.767,0,1.618,0.342,2.214,0.852l61.047,58.324C373.01,443.545,371.647,446.953,368.838,446.953z M410.652,488.66v43.941   c0,10.961-8.886,19.848-19.848,19.848h-21.237c-3.837-26.332-26.53-46.576-53.919-46.576c-27.325,0-50.017,20.244-53.854,46.576   H154.151c-3.837-26.332-26.53-46.576-53.854-46.576c-27.324,0-50.017,20.244-53.854,46.576H19.848   C8.886,552.447,0,543.562,0,532.602V488.66H410.652z M315.709,519.152c-22.732,0-41.208,18.391-41.208,41.123   c0,22.734,18.476,41.211,41.208,41.211c22.733,0,41.124-18.477,41.124-41.211C356.833,537.543,338.442,519.152,315.709,519.152z    M315.709,580.881c-11.408,0-20.604-9.195-20.604-20.605c0-11.324,9.195-20.604,20.604-20.604c11.324,0,20.52,9.279,20.52,20.604   C336.229,571.686,327.033,580.881,315.709,580.881z M100.3,519.152c-22.732,0-41.209,18.391-41.209,41.123   c0,22.734,18.477,41.211,41.209,41.211c22.733,0,41.124-18.477,41.124-41.211C141.424,537.543,123.033,519.152,100.3,519.152z    M100.3,580.881c-11.409,0-20.604-9.195-20.604-20.605c0-11.324,9.195-20.604,20.604-20.604c11.324,0,20.604,9.279,20.604,20.604   C120.904,571.686,111.624,580.881,100.3,580.881z" fill="#d0d0d0"/>
        </g>
    </svg>

    <view id="basketPayment" viewBox="260 466 48 48"></view>
    <svg x="260px" y="466px" viewBox="0 0 512.005 512.005" width="48px" height="48px">
        <g>
            <path d="M256.003,234.672c-11.76,0-21.333,9.573-21.333,21.333c0,7.792,4.409,14.329,10.667,18.053v13.947     c0,5.896,4.771,10.667,10.667,10.667c5.896,0,10.667-4.771,10.667-10.667v-13.947c6.258-3.724,10.667-10.262,10.667-18.053     C277.336,244.245,267.763,234.672,256.003,234.672z" fill="#d0d0d0"/>
            <path d="M256.003,149.339c-17.646,0-32,14.354-32,32v10.667h64v-10.667C288.003,163.693,273.648,149.339,256.003,149.339z" fill="#d0d0d0"/>
            <path d="M440.888,64.609l-181.333-64c-2.292-0.813-4.812-0.813-7.104,0l-181.333,64c-4.26,1.51-7.115,5.542-7.115,10.063v128     c0,165.646,24.563,226.188,187.198,308.188c1.51,0.76,3.156,1.146,4.802,1.146c1.646,0,3.292-0.385,4.802-1.146     c162.635-82,187.198-142.542,187.198-308.188v-128C448.003,70.151,445.148,66.12,440.888,64.609z M352.003,320.005     c0,11.76-9.573,21.333-21.333,21.333H181.336c-11.76,0-21.333-9.573-21.333-21.333V213.339c0-11.76,9.573-21.333,21.333-21.333     v-10.667c0-41.167,33.5-74.667,74.667-74.667s74.667,33.5,74.667,74.667v10.667c11.76,0,21.333,9.573,21.333,21.333V320.005z" fill="#d0d0d0"/>
        </g>
    </svg>

    <view id="basketTilbage" viewBox="0 328 200 48"></view>
    <g>
        <rect rx="24" x="0" y="328" width="200" height="48" fill="#e9e9e9" stroke="#d0d0d0"/>
        <text text-align="center" font-family="Helvetica" font-size="22" fill="#202020" y="359" x="64">Tilbage</text>
    </g>

    <view id="basketBestil" viewBox="0 396 240 48"></view>
    <g>
        <rect rx="24" x="0" y="396" width="240" height="48" fill="#78BD3F"/>
        <text text-align="center" font-family="Helvetica" font-size="26" fill="#fff" y="430" x="86">Bestil</text>
    </g>

    <view id="basketVidere" viewBox="0 464 240 48"></view>
    <g>
        <rect rx="24" x="0" y="464" width="240" height="48" fill="#4583ed"/>
        <text text-align="center" font-family="Helvetica" font-size="26" fill="#fff" y="498" x="83">Videre</text>
    </g>

    <view id="basketGodkend" viewBox="0 532 240 48"></view>
    <g>
        <rect rx="24" x="0" y="532" width="240" height="48" fill="#4583ed"/>
        <text text-align="center" font-family="Helvetica" font-size="26" fill="#fff" y="565" x="17">Godkend og betal</text>
    </g>
</svg>