<svg xmlns="http://www.w3.org/2000/svg" version="1.1" xmlns:xlink="http://www.w3.org/1999/xlink"
    xmlns:svgjs="http://svgjs.com/svgjs" width="512" height="512" x="0" y="0" viewBox="0 0 512 512"
    style="enable-background:new 0 0 512 512" xml:space="preserve" class="">
    <g>
        <path y="33" x="12312312" d="m194.403 176.227-67.021 159.926H83.638L50.68 208.536c-2.029-7.871-3.763-10.734-9.847-14.076-9.966-5.388-26.359-10.443-40.833-13.59l1.013-4.642h70.379c8.976 0 17.046 5.987 19.075 16.308l17.427 92.562 43.044-108.87h43.465zm171.346 107.688c.194-42.186-58.373-44.482-57.952-63.355.114-5.761 5.574-11.857 17.532-13.396 5.938-.79 22.279-1.369 40.8 7.134l7.259-33.898c-9.965-3.617-22.774-7.081-38.694-7.081-40.889 0-69.674 21.749-69.917 52.868-.268 23.013 20.537 35.854 36.23 43.518 16.114 7.842 21.502 12.849 21.445 19.882-.106 10.734-12.857 15.425-24.751 15.636-20.805.324-32.872-5.622-42.509-10.11l-7.49 35.063c9.652 4.432 27.525 8.28 46.021 8.507 43.459-.002 71.889-21.519 72.026-54.768m107.979 52.239H512l-33.395-159.926h-35.331c-7.939 0-14.632 4.63-17.613 11.723l-62.042 148.203h43.425l8.62-23.884h53.082l4.982 23.884zm-46.164-56.663 21.785-60.049 12.533 60.049h-34.318zM253.525 176.227l-34.23 159.926h-41.379l34.238-159.926h41.371z" fill="#000000" data-original="#000000" class=""></path>
    </g>
    <g>
        <g>
            <rect x="60.4117" y="25.6968" width="31.5" height="56.6064" style="fill: #ff5f00" />
            <path
                d="M382.20839,306a35.9375,35.9375,0,0,1,13.7499-28.3032,36,36,0,1,0,0,56.6064A35.938,35.938,0,0,1,382.20839,306Z"
                transform="translate(-319.79649 -252)" style="fill: #eb001b" />
            <path
                d="M454.20349,306a35.99867,35.99867,0,0,1-58.2452,28.3032,36.00518,36.00518,0,0,0,0-56.6064A35.99867,35.99867,0,0,1,454.20349,306Z"
                transform="translate(-319.79649 -252)" style="fill: #f79e1b" />
            <path
                d="M450.76889,328.3077v-1.1589h.4673v-.2361h-1.1901v.2361h.4675v1.1589Zm2.3105,0v-1.3973h-.3648l-.41959.9611-.41971-.9611h-.365v1.3973h.2576v-1.054l.3935.9087h.2671l.39351-.911v1.0563Z"
                transform="translate(-319.79649 -252)" style="fill: #f79e1b" />
        </g>
        <rect width="152.407" height="108" style="fill: none" />
    </g>
</svg>
